# xmcd
#
# Track frame offsets:
#	150
#	10985
#	22563
#	34946
#	54244
#	66308
#	79885
#	93902
#	111300
#	122087
#	135594
#	148608
#	160068
#	174907
#
# Disc length: 2510 seconds
#
# Revision: 0
# Processed by: cddbd v1.5.1PL0 Copyright (c) Steve Scherf et al.
# Submitted via: dBpowerAMP V4.0
#
DISCID=ad09cc0e
DTITLE=Dixie Aces - A Rock 'n Roll and Country Fusion 
DYEAR=2004
DGENRE=
TTITLE0=You've takin''me places i wish i've never been
TTITLE1=La Linda
TTITLE2=Cherokee boogie
TTITLE3=Rose of my heart
TTITLE4=Blue moon nights
TTITLE5=Twenty flight rock
TTITLE6=Sweet talk and good lies
TTITLE7=You took her off my hands
TTITLE8=Mona Lisa
TTITLE9=Don't come cryin' to me
TTITLE10=Pour me
TTITLE11=One and only lover
TTITLE12=Bailando
TTITLE13=Dim lights, thick smoke and loud loud music
EXTD=
EXTT0=
EXTT1=
EXTT2=
EXTT3=
EXTT4=
EXTT5=
EXTT6=
EXTT7=
EXTT8=
EXTT9=
EXTT10=
EXTT11=
EXTT12=
EXTT13=
PLAYORDER=
